<?xml version="1.0" encoding="UTF-8" standalone="no"?>
<!-- Created with Inkscape (http://www.inkscape.org/) -->

<svg
   width="1000.0001"
   height="1000.0001"
   viewBox="0 0 264.58335 264.58335"
   version="1.1"
   id="svg1"
   xml:space="preserve"
   xmlns="http://www.w3.org/2000/svg"
   xmlns:svg="http://www.w3.org/2000/svg"><defs
     id="defs1" /><g
     id="layer1"><g
       id="g33"
       transform="translate(-0.23412883,-4.7947007)"><path
         id="path1"
         style="fill:#000000;fill-rule:evenodd;stroke-width:0.0409157;stroke-linecap:round;stroke-linejoin:round;paint-order:fill markers stroke"
         d="m 37.966282,70.400521 c -3.778499,1.145749 -6.314198,2.986677 -7.606201,7.606193 l 0.146887,60.992066 c 3.122806,-3.08238 6.473523,-5.17113 9.982097,-6.45554 v -21.5177 h 2.513885 v 20.73873 c 3.011825,-0.76971 6.124703,-1.00166 9.296592,-0.81015 l -0.145789,-38.028773 39.198391,0.292655 c 27.620276,12.435348 14.697986,38.109528 -0.292677,42.270918 l -38.467259,0.73112 c -13.212554,0.60943 -21.255126,6.51947 -22.524817,16.08931 v 51.48514 l 10.421666,0.0678 v -52.32198 h 2.513884 V 203.879 l 9.443487,0.0612 -0.146888,-45.78078 h 23.402871 l 35.395819,45.63499 26.32736,-0.29268 -34.95737,-47.53569 c 50.57767,-23.25283 25.98197,-81.150603 -5.264802,-85.272928 z m 24.447784,2.305774 h 0.809044 v 18.312766 h -0.809044 z m 11.639118,1.476736 h 2.256826 v 2.256826 h -2.256826 z m -32.307726,4.701714 a 2.9252892,2.9252892 0 0 1 2.618491,1.619165 l 17.355712,-0.08011 0.01292,2.515004 -17.322329,0.08011 a 2.9252892,2.9252892 0 0 1 -1.406618,1.432223 V 102.65483 H 40.48975 V 84.451137 a 2.9252892,2.9252892 0 0 1 -1.668135,-2.641865 2.9252892,2.9252892 0 0 1 2.924522,-2.924527 z m 24.177381,0.613176 h 4.451331 v 4.451309 h -4.451331 z m 6.616893,0.698862 20.503911,0.05233 c 44.120717,9.594978 34.124247,64.824247 0.286001,68.934317 l -8.310611,-0.0545 31.192657,40.71293 a 2.9252892,2.9252892 0 0 1 0.71443,-0.0889 2.9252892,2.9252892 0 0 1 2.92565,2.92565 2.9252892,2.9252892 0 0 1 -2.92565,2.92451 2.9252892,2.9252892 0 0 1 -2.92563,-2.92451 2.9252892,2.9252892 0 0 1 0.2147,-1.09949 L 81.388967,149.07339 55.730409,148.96658 a 2.9252892,2.9252892 0 0 1 -2.429312,1.29533 2.9252892,2.9252892 0 0 1 -2.925633,-2.92563 2.9252892,2.9252892 0 0 1 2.925633,-2.92562 2.9252892,2.9252892 0 0 1 2.58177,1.55017 l 35.544949,-0.28822 c 31.517204,-2.55795 42.086104,-53.052753 0.07343,-62.747005 l -18.941511,-0.07343 z m -26.911607,10.38939 h 3.209407 v 3.210507 h -3.209407 z m 0,5.906897 h 3.209407 v 3.210529 h -3.209407 z m 0,7.38363 h 3.209407 v 3.21053 h -3.209407 z m -11.830508,1.1529 h 2.59067 v 2.58956 h -2.59067 z m 0,6.21183 h 2.59067 v 2.58956 h -2.59067 z m 0,5.27593 h 2.59067 v 2.58956 h -2.59067 z m 0,5.27594 h 2.59067 v 2.58955 h -2.59067 z" /><path
         id="path2"
         style="fill:#000000;fill-rule:evenodd;stroke-width:0.0409157;stroke-linecap:round;stroke-linejoin:round;paint-order:fill markers stroke"
         d="m 224.64264,70.145681 c -2.83451,-0.04931 -5.80252,1.096175 -8.30729,3.692365 l -40.03967,62.345274 -40.9177,-63.588294 c -3.8948,-3.474543 -11.24977,-3.437697 -15.94241,3.50986 18.8796,15.387032 20.51946,44.004344 11.33196,62.519984 v 22.142 h -2.51389 v -17.7441 c -2.92672,4.45874 -6.58929,8.05687 -10.86569,10.34712 l 0.14579,14.84516 10.7199,14.07956 V 166.6059 h 2.51389 v 18.99046 l 9.40118,12.34688 -0.14686,-77.11812 28.00997,44.79369 c 4.68046,7.31326 11.7373,7.60637 16.45433,-0.10896 l 28.33936,-44.68352 -0.29268,75.43551 c 1.4139,9.55594 19.09949,10.99356 22.45137,0.36501 L 234.9474,79.177507 c -1.22648,-5.545848 -5.58063,-8.94937 -10.3048,-9.03174 z m -0.34944,8.686756 a 3.4926021,3.4926021 0 0 1 3.49207,3.493192 3.4926021,3.4926021 0 0 1 -2.67081,3.394133 l 0.74672,102.627528 a 3.4926021,3.4926021 0 0 1 2.26462,3.26949 3.4926021,3.4926021 0 0 1 -3.49207,3.49317 3.4926021,3.4926021 0 0 1 -3.49318,-3.49317 3.4926021,3.4926021 0 0 1 2.29355,-3.2795 L 222.97451,86.844837 179.66644,154.40592 a 3.8028756,3.8028756 0 0 1 0.70442,2.20342 3.8028756,3.8028756 0 0 1 -3.80253,3.80366 3.8028756,3.8028756 0 0 1 -3.80366,-3.80366 3.8028756,3.8028756 0 0 1 0.56976,-2.00199 l -37.75392,-59.695608 1.34432,-0.826843 38.12671,59.037951 a 3.8028756,3.8028756 0 0 1 1.51679,-0.31607 3.8028756,3.8028756 0 0 1 1.49452,0.30603 l 43.51839,-68.586 a 3.4926021,3.4926021 0 0 1 -0.78121,-2.201181 3.4926021,3.4926021 0 0 1 3.49317,-3.493192 z m 3.69572,74.200263 h 3.4175 v 3.4175 h -3.4175 z m -93.79832,2.27018 h 2.33248 v 2.3336 h -2.33248 z m 81.49152,7.34801 h 4.45133 v 4.45245 h -4.45133 z m -96.3367,0.18477 h 3.20941 v 3.21053 h -3.20941 z m 5.38389,1.41442 9.6104,0.006 -0.001,0.37612 -9.61042,-0.006 z m 9.46129,5.82566 h 2.33248 v 2.3336 h -2.33248 z m 93.79832,1.47006 h 3.4175 v 3.4175 h -3.4175 z" /></g></g></svg>
